# xmcd
#
# Track frame offsets:
#	150
#	16820
#	31378
#	47383
#	62985
#	77610
#	96470
#	114013
#	130639
#	150923
#	168967
#	187693
#	205164
#	223457
#	241906
#	260421
#	277237
#
# Disc length: 3988
#
# Revision: 1
# Processed by: cddbd v1.5.1PL0 Copyright (c) Steve Scherf et al.
# Submitted via: CDex 1.40Beta9
# Normalized: r0:DSETVAR1
#
DISCID=dc0f9211
DTITLE=Various Artist - Totally Country Vol. 4
DYEAR=1900
DGENRE=Country
TTITLE0=Alan Jackson - That'd Be Alright
TTITLE1=Gretchen Wilson - Redneck Woman
TTITLE2=Kenny Chesney - No Shoes, No Shirt, No Problem
TTITLE3=Blake Shelton - Some Beach
TTITLE4=Big and Rich - Save A Horse (Ride A Cowboy)
TTITLE5=Toby Keith - I Love This Bar
TTITLE6=Joe Nichols - Brokentheartsville
TTITLE7=Brad Paisley - Little Moments
TTITLE8=John Michael Montgomery - Letters From Home
TTITLE9=Garry Allan - Tough Little Boys
TTITLE10=George Strait - Desparately
TTITLE11=Lonestar - Let's Be Us Again
TTITLE12=Sara Evans - Perfect
TTITLE13=Los Lonely Boys - Heaven
TTITLE14=Clay Walker - I Can't Sleep
TTITLE15=Buddy Jewll - Help Pour Out The Rain
TTITLE16=Montgomery Gentry - Hell Yeah
EXTD=ID3G: 2
EXTT0=
EXTT1=
EXTT2=
EXTT3=
EXTT4=
EXTT5=
EXTT6=
EXTT7=
EXTT8=
EXTT9=
EXTT10=
EXTT11=
EXTT12=
EXTT13=
EXTT14=
EXTT15=
EXTT16=
PLAYORDER=
